<?xml version="1.0" standalone="no"?>
<!DOCTYPE svg PUBLIC "-//W3C//DTD SVG 20010904//EN"
 "http://www.w3.org/TR/2001/REC-SVG-20010904/DTD/svg10.dtd">
<svg version="1.0" xmlns="http://www.w3.org/2000/svg"
 width="700.000000pt" height="700.000000pt" viewBox="0 0 700.000000 700.000000"
 preserveAspectRatio="xMidYMid meet">
<metadata>
Created by potrace 1.11, written by Peter Selinger 2001-2013
</metadata>
<g transform="translate(0.000000,700.000000) scale(0.100000,-0.100000)"
fill="#000000" stroke="none">
<path d="M4007 6839 c-58 -47 -81 -92 -143 -271 -31 -90 -63 -175 -71 -190
-16 -26 -17 -26 -57 -12 -57 21 -146 28 -179 15 -15 -6 -33 -22 -39 -36 -31
-68 117 -114 210 -66 l41 21 87 -36 c47 -19 107 -38 133 -41 43 -5 48 -3 58
20 11 24 11 24 -40 30 -42 4 -187 52 -187 61 0 2 13 29 29 62 17 32 52 125 80
205 71 210 94 249 150 249 59 0 64 -55 15 -152 -29 -58 -30 -60 -1 -56 48 7
86 152 53 203 -25 38 -89 35 -139 -6z m-312 -509 l50 -17 -32 -16 c-66 -34
-173 -14 -173 33 0 33 57 33 155 0z"/>
<path d="M4708 6708 c-16 -13 -343 -523 -355 -555 -5 -12 -1 -14 14 -9 13 4
27 -2 43 -19 13 -13 38 -28 57 -31 71 -13 190 74 214 158 7 27 5 38 -9 58 -34
45 -84 37 -175 -27 -47 -33 -47 -32 90 169 75 112 145 214 155 227 10 13 18
28 18 32 0 13 -34 11 -52 -3z m-72 -412 c14 -36 -80 -153 -140 -176 -23 -8
-34 -7 -53 5 -40 26 -39 43 3 86 79 82 175 124 190 85z"/>
<path d="M2610 6605 c-11 -13 -11 -19 3 -32 21 -21 49 -9 45 19 -4 28 -30 35
-48 13z"/>
<path d="M3285 6536 c-11 -8 -34 -11 -60 -8 -36 4 -47 0 -79 -28 -44 -39 -73
-92 -82 -149 -18 -113 79 -152 146 -59 17 22 30 35 30 27 0 -41 -30 -192 -41
-205 -24 -29 -48 -36 -86 -23 -29 9 -37 9 -44 -2 -14 -22 -11 -28 17 -35 70
-18 152 46 173 132 18 77 59 364 51 364 -3 0 -15 -6 -25 -14z m-36 -40 c27
-33 -31 -187 -81 -215 -54 -30 -73 25 -44 124 25 81 92 131 125 91z"/>
<path d="M2908 6485 c-15 -9 -39 -40 -57 -76 l-31 -62 0 61 c0 66 -1 68 -31
52 -16 -9 -19 -21 -18 -78 1 -37 4 -99 8 -139 8 -92 27 -86 46 15 22 116 79
223 104 196 5 -5 11 -53 13 -108 4 -90 6 -100 28 -118 l25 -20 27 33 c16 18
28 40 28 49 -1 11 -6 9 -20 -9 -12 -13 -26 -21 -35 -17 -12 4 -15 26 -15 110
0 94 -2 106 -19 116 -24 12 -20 12 -53 -5z"/>
<path d="M4211 6439 c-99 -40 -175 -174 -125 -223 26 -27 77 -19 133 18 39 27
48 30 40 15 -5 -11 -9 -34 -7 -52 4 -39 27 -46 74 -21 35 19 48 42 17 29 -10
-4 -26 -10 -35 -12 -32 -9 -20 38 32 131 28 49 50 93 50 98 0 12 -38 10 -45
-3 -5 -7 -14 -3 -26 10 -21 23 -66 27 -108 10z m93 -25 c21 -21 20 -28 -8 -72
-45 -70 -119 -125 -157 -115 -53 14 13 145 96 191 28 16 51 15 69 -4z"/>
<path d="M2638 6416 c-16 -12 -17 -22 -8 -97 15 -127 19 -147 36 -164 24 -23
42 -18 64 18 28 45 25 69 -4 34 -36 -44 -49 -18 -54 114 -3 60 -7 109 -11 109
-3 0 -14 -7 -23 -14z"/>
<path d="M2469 6365 c-32 -17 -54 -66 -45 -101 5 -20 21 -32 66 -51 33 -15 62
-34 65 -43 15 -46 -37 -80 -86 -56 -31 15 -39 12 -39 -15 0 -11 10 -21 25 -25
62 -15 125 33 125 96 0 43 -16 60 -82 89 -40 17 -48 25 -48 46 0 34 36 49 67
29 30 -19 33 -18 33 10 0 37 -36 46 -81 21z"/>
<path d="M2257 6276 c-32 -29 -41 -63 -28 -98 7 -19 23 -30 63 -43 67 -22 82
-36 74 -69 -8 -31 -47 -44 -87 -29 -24 9 -28 8 -33 -10 -6 -26 9 -37 52 -37
49 0 92 46 92 98 0 47 -19 66 -86 91 -40 14 -49 21 -49 40 0 13 9 30 20 37 17
11 25 11 48 -1 28 -14 28 -14 25 13 -4 38 -53 43 -91 8z"/>
<path d="M4754 6211 c-78 -35 -120 -120 -90 -179 45 -88 211 -51 268 60 52
100 -58 173 -178 119z m130 -7 c42 -16 6 -109 -64 -164 -51 -40 -90 -48 -114
-21 -32 36 1 105 78 162 39 28 68 35 100 23z"/>
<path d="M2051 6171 c-50 -69 -42 -201 15 -249 47 -40 115 -17 150 50 16 31
18 68 4 68 -5 0 -10 -7 -10 -15 0 -30 -31 -75 -55 -81 -25 -6 -75 17 -75 35 0
5 16 35 35 67 51 85 45 154 -15 154 -20 0 -35 -8 -49 -29z m58 -15 c14 -36
-14 -136 -38 -136 -13 0 -23 68 -15 103 12 58 38 74 53 33z"/>
<path d="M5047 6172 c-10 -10 -17 -35 -17 -56 0 -34 -3 -39 -45 -57 -25 -11
-45 -24 -45 -29 0 -14 5 -13 60 15 42 21 53 23 75 13 l25 -11 -48 -27 c-70
-38 -93 -56 -113 -87 -23 -34 -23 -37 -3 -57 17 -18 90 -21 114 -6 11 7 4 10
-27 10 -23 0 -45 5 -49 11 -9 15 61 84 129 126 31 20 57 39 57 43 0 4 -16 11
-35 14 -43 8 -50 19 -30 50 13 19 14 29 5 45 -13 26 -32 27 -53 3z m24 -45
c-8 -8 -11 -7 -11 4 0 20 13 34 18 19 3 -7 -1 -17 -7 -23z"/>
<path d="M1851 6056 c-76 -81 -23 -276 75 -276 47 0 104 75 104 138 0 27 -18
10 -24 -23 -12 -60 -62 -85 -105 -51 -56 44 -69 216 -15 216 16 0 34 -38 27
-57 -8 -21 15 -15 27 6 7 13 7 28 0 45 -13 35 -58 35 -89 2z"/>
<path d="M5165 5936 c-58 -26 -105 -77 -105 -111 0 -30 44 -65 80 -65 15 0 48
6 75 14 l48 15 -27 -28 c-29 -31 -35 -76 -10 -85 21 -8 84 3 84 15 0 5 -13 9
-30 9 -16 0 -30 4 -30 9 0 17 41 59 109 111 39 30 71 58 71 62 0 8 -19 12 -47
11 -7 -1 -13 5 -13 12 0 8 -12 23 -26 34 -37 29 -114 28 -179 -3z m163 -12
c12 -8 22 -24 22 -35 0 -46 -166 -123 -216 -100 -42 19 -27 53 48 110 21 15
86 40 108 41 9 0 26 -7 38 -16z"/>
<path d="M1642 5910 c-60 -37 -80 -135 -43 -216 23 -51 55 -74 102 -74 73 0
124 98 99 190 -15 56 -36 88 -71 106 -37 19 -48 18 -87 -6z m68 -40 c50 -53
76 -165 47 -204 -21 -29 -67 -17 -94 23 -36 53 -56 132 -43 167 20 53 50 57
90 14z"/>
<path d="M1021 5861 c-52 -52 -47 -212 9 -323 7 -13 -21 10 -62 50 -40 39 -76
72 -80 72 -3 0 -8 -12 -11 -27 -4 -24 8 -41 96 -134 56 -59 143 -161 192 -227
50 -67 94 -121 99 -122 5 0 14 8 21 17 10 14 -1 35 -79 139 -50 67 -106 148
-125 179 -82 135 -97 345 -25 345 71 0 183 -156 199 -276 8 -56 -12 -118 -45
-141 -21 -15 -27 -48 -11 -58 13 -8 56 52 71 99 16 51 8 187 -16 246 -55 140
-173 221 -233 161z"/>
<path d="M5566 5843 c-42 -32 -51 -35 -68 -24 -25 15 -35 7 -18 -14 7 -9 11
-17 9 -19 -2 -1 -41 -30 -85 -64 -100 -75 -111 -95 -74 -132 14 -14 33 -20 65
-20 54 0 60 18 8 22 -30 2 -39 8 -41 24 -3 21 1 25 115 107 l51 37 31 -26 c40
-33 54 -23 18 13 l-26 27 62 44 c53 39 59 46 42 53 -32 12 -37 10 -89 -28z"/>
<path d="M1462 5758 c-7 -7 -12 -17 -12 -24 0 -6 -7 -17 -15 -24 -13 -11 -20
-9 -39 9 -31 29 -60 24 -64 -11 -4 -29 28 -58 64 -58 23 0 34 -23 34 -72 0
-16 5 -28 10 -28 12 0 13 51 1 82 -7 17 -4 29 9 45 19 24 30 21 30 -9 0 -29
38 -129 57 -150 40 -45 99 3 91 75 -4 33 -11 25 -22 -25 -4 -16 -13 -28 -21
-28 -18 0 -67 95 -90 173 -9 31 -17 57 -19 57 -1 0 -7 -5 -14 -12z m-77 -58
c3 -5 -1 -10 -9 -10 -8 0 -18 5 -21 10 -3 6 1 10 9 10 8 0 18 -4 21 -10z"/>
<path d="M5518 5619 c-69 -36 -94 -113 -52 -160 78 -87 285 -29 284 80 -1 39
-12 58 -50 84 -35 24 -134 22 -182 -4z m190 -21 c48 -48 -67 -148 -169 -148
-71 0 -85 59 -25 105 66 50 165 72 194 43z"/>
<path d="M5837 5493 c-8 -10 -17 -27 -19 -38 -3 -22 -26 -32 -75 -34 -18 -1
-33 -6 -33 -12 0 -8 18 -10 58 -5 50 6 61 4 76 -13 17 -18 15 -19 -50 -30 -37
-7 -84 -21 -105 -32 -32 -16 -39 -25 -39 -49 0 -33 15 -44 73 -55 25 -5 37 -4
37 4 0 6 -8 11 -18 11 -10 0 -27 7 -38 15 -19 14 -18 15 6 34 20 16 71 34 193
68 24 6 21 22 -7 33 -37 14 -40 29 -11 56 16 15 25 31 21 40 -3 9 -6 18 -6 20
0 12 -49 2 -63 -13z m33 -28 c-7 -9 -15 -13 -18 -10 -3 2 1 11 8 20 7 9 15 13
18 10 3 -2 -1 -11 -8 -20z"/>
<path d="M5870 5237 c-111 -50 -135 -77 -106 -121 9 -15 30 -29 46 -33 17 -3
30 -9 30 -13 0 -13 -120 -50 -161 -50 -43 0 -69 27 -69 72 0 23 -4 28 -26 28
-23 0 -25 -3 -20 -26 22 -88 115 -124 226 -90 87 27 305 107 313 115 4 4 -3
13 -15 20 -20 10 -36 7 -110 -23 -71 -28 -94 -32 -123 -26 -46 10 -67 28 -63
53 2 16 27 29 113 61 61 22 112 42 115 44 7 5 -31 32 -44 31 -6 0 -54 -19
-106 -42z"/>
<path d="M872 5048 c-22 -22 -13 -90 18 -146 l29 -54 -53 46 c-30 25 -57 46
-60 46 -3 0 -6 -11 -6 -24 0 -19 24 -45 100 -110 56 -47 105 -86 110 -86 21 0
8 34 -34 85 -73 91 -113 195 -76 202 8 2 49 -24 90 -57 103 -83 143 -78 125
16 -8 43 -27 45 -23 2 2 -17 -2 -33 -8 -35 -7 -2 -45 26 -87 62 -74 64 -102
76 -125 53z"/>
<path d="M1591 4971 c-27 -17 -31 -139 -6 -202 4 -11 -17 -31 -82 -75 -48 -32
-91 -60 -95 -62 -4 -2 -23 8 -41 22 -50 38 -73 34 -42 -9 11 -13 15 -41 13
-90 -2 -79 6 -99 57 -144 40 -35 62 -39 73 -13 5 13 20 17 63 18 l56 1 11
-148 c10 -142 23 -196 42 -184 17 10 32 112 37 252 l6 142 41 15 c23 9 52 17
66 18 21 3 25 8 25 38 -1 30 8 44 57 92 32 32 58 66 58 76 0 27 -41 84 -70 99
-30 15 -99 17 -134 3 -26 -9 -26 -9 -26 36 0 53 -23 97 -57 113 -29 13 -34 13
-52 2z m6 -103 c-2 -13 -4 -5 -4 17 -1 22 1 32 4 23 2 -10 2 -28 0 -40z m233
-124 c0 -17 -57 -95 -92 -126 -32 -28 -48 -12 -48 47 0 57 9 71 57 85 48 14
83 12 83 -6z m-230 -138 c0 -53 0 -54 -47 -84 -27 -17 -60 -34 -75 -37 -26 -7
-28 -5 -28 23 0 24 12 40 73 90 39 34 73 61 75 62 1 0 2 -24 2 -54z"/>
<path d="M2552 4948 c-16 -16 -15 -68 3 -140 19 -71 15 -83 -35 -126 -39 -34
-39 -34 -60 -14 -23 21 -106 49 -117 39 -3 -4 8 -22 26 -42 17 -20 31 -41 32
-48 3 -37 -4 -153 -10 -160 -4 -4 -44 -20 -90 -36 -105 -37 -110 -42 -78 -75
36 -36 64 -33 182 18 55 24 101 40 103 36 6 -15 -37 -88 -60 -104 -12 -9 -30
-16 -40 -16 -20 0 -48 -37 -48 -64 0 -16 5 -18 38 -12 140 23 172 55 196 196
6 32 11 37 51 48 57 15 169 15 253 1 74 -13 87 -5 70 43 -16 45 -59 62 -140
54 -37 -3 -68 -4 -68 0 0 10 57 88 79 108 30 28 26 62 -11 97 -40 36 -81 44
-133 26 l-40 -14 0 73 c0 63 -3 76 -24 98 -26 28 -59 34 -79 14z m27 -111 c-1
-36 -2 -38 -9 -17 -12 36 -12 72 0 65 6 -3 10 -25 9 -48z m145 -179 c-28 -56
-34 -61 -55 -42 -22 19 -25 13 -7 -15 13 -21 1 -43 -32 -61 -15 -8 -16 -4 -9
42 5 28 10 52 12 54 22 23 103 72 105 65 2 -5 -4 -25 -14 -43z m-182 -118 c-6
-36 -12 -46 -30 -48 -34 -5 -26 43 17 91 20 23 23 13 13 -43z"/>
<path d="M4450 4915 c0 -8 14 -34 31 -57 l30 -43 -65 -16 c-37 -9 -85 -29
-109 -47 l-44 -31 -12 40 c-16 54 -35 45 -41 -22 -3 -30 -14 -76 -24 -102 -16
-41 -17 -54 -7 -87 13 -45 42 -67 60 -47 6 8 20 51 32 98 27 105 41 119 123
119 33 0 99 9 146 20 47 11 103 19 125 19 l40 0 -38 -20 c-30 -16 -45 -18 -65
-11 -33 11 -59 2 -117 -39 -37 -26 -46 -29 -65 -19 -32 17 -52 6 -44 -25 5
-19 -2 -34 -29 -66 -61 -71 -60 -149 0 -101 16 11 54 38 85 59 60 40 66 50 46
83 -16 24 -4 37 40 46 32 7 33 6 25 -22 -8 -30 -7 -113 1 -122 3 -3 36 -5 74
-5 66 0 112 14 112 34 0 22 -50 59 -80 59 -34 0 -37 9 -12 38 11 14 43 26 97
37 44 8 83 19 88 24 15 15 -3 70 -30 91 -21 16 -41 20 -102 20 -83 0 -88 2
-114 43 -10 15 -32 37 -50 47 -39 24 -107 27 -107 5z"/>
<path d="M5520 4901 c0 -4 9 -20 20 -34 24 -30 25 -41 4 -58 -14 -12 -14 -14
3 -20 31 -11 -53 -41 -94 -33 -32 6 -33 5 -33 -24 0 -39 -16 -50 -24 -16 -5
17 0 36 14 58 25 42 25 61 0 86 -29 29 -71 25 -104 -9 -16 -16 -41 -35 -58
-42 -36 -15 -32 -28 14 -53 26 -14 42 -34 57 -69 11 -28 18 -54 15 -59 -8 -12
-32 9 -50 44 -16 32 -49 37 -62 11 -5 -10 -13 -102 -16 -204 -8 -200 -3 -232
43 -278 40 -40 45 -32 61 104 17 143 31 204 45 199 7 -3 19 12 30 38 10 24 20
37 22 31 8 -23 20 -14 43 30 42 81 49 86 174 127 65 22 122 40 128 40 15 0
-24 -60 -54 -81 -16 -11 -43 -19 -70 -19 -23 -1 -54 -7 -68 -15 -14 -8 -35
-14 -46 -15 -31 0 -37 -26 -11 -50 13 -13 18 -24 12 -28 -6 -4 -29 -19 -53
-35 -29 -19 -42 -34 -42 -50 0 -39 15 -50 54 -44 34 5 35 5 23 -13 -7 -10 -38
-40 -70 -65 -49 -41 -57 -52 -57 -81 0 -22 5 -34 13 -34 7 0 60 42 118 94 57
52 105 90 107 85 2 -4 -8 -28 -22 -52 -31 -53 -35 -116 -8 -140 30 -27 101
-47 166 -47 56 0 170 21 182 33 7 7 -26 186 -36 192 -5 3 -11 -9 -15 -27 -18
-95 -49 -119 -152 -120 -105 0 -114 24 -47 121 39 58 39 59 18 82 -14 16 -14
18 5 29 28 14 27 55 -1 74 -29 21 -62 20 -79 -1 -12 -14 -68 -43 -84 -43 -19
0 15 25 74 55 38 19 71 41 74 48 3 8 43 29 89 47 46 17 88 38 94 46 17 21 6
50 -29 80 -29 25 -36 26 -99 20 -68 -6 -68 -6 -68 19 0 14 -11 37 -25 50 -19
20 -34 25 -75 25 -27 0 -50 -4 -50 -9z m-203 -360 c6 -24 -27 -142 -53 -191
-13 -24 -13 -23 -14 25 0 28 7 90 17 139 15 78 18 86 30 70 8 -11 17 -30 20
-43z"/>
<path d="M3420 4853 c-36 -21 -49 -24 -91 -19 -64 9 -65 -7 -3 -64 l45 -42
-42 -64 c-28 -43 -48 -64 -61 -64 -16 0 -19 -5 -15 -22 6 -23 -54 -125 -80
-135 -21 -8 -45 -61 -38 -84 6 -17 14 -20 48 -17 35 3 45 8 57 33 47 92 70
112 70 61 0 -31 36 -76 61 -76 12 0 21 9 25 25 5 19 13 25 34 25 16 0 40 4 54
10 21 8 25 15 24 48 0 22 4 47 9 56 7 13 12 9 27 -25 10 -23 27 -44 37 -46 25
-7 29 -23 16 -71 -9 -34 -8 -48 6 -77 33 -68 60 -35 79 96 12 85 21 99 79 123
l36 15 6 -212 c5 -213 10 -251 30 -244 18 6 35 122 43 300 l7 167 34 0 c19 0
43 5 54 10 43 24 7 80 -54 83 -33 2 -34 3 -33 40 0 29 -5 44 -22 58 -28 22
-23 34 18 42 25 6 30 11 30 36 0 61 -78 71 -189 23 -40 -18 -82 -32 -92 -32
-49 0 -26 -56 32 -81 l30 -12 -62 -63 -62 -63 -28 30 c-33 36 -86 40 -114 9
-10 -11 -22 -20 -27 -20 -16 0 55 91 104 134 69 59 65 104 -10 125 -24 7 -38
4 -72 -16z m331 -190 c-11 -21 -26 -47 -35 -58 -15 -19 -15 -19 -16 12 0 23 8
38 31 57 40 34 43 33 20 -11z m57 -5 c-2 -25 -9 -33 -30 -39 -33 -9 -33 -9 -7
35 26 45 41 46 37 4z m-208 -93 c-7 -8 -17 -15 -22 -15 -6 0 -5 7 2 15 7 8 17
15 22 15 6 0 5 -7 -2 -15z m-171 -12 c7 -5 -28 -73 -38 -73 -5 0 -11 10 -14
23 -3 12 -9 32 -12 44 -7 21 -5 23 26 17 19 -4 36 -9 38 -11z"/>
<path d="M753 4770 c-39 -16 -56 -54 -51 -114 11 -127 149 -213 223 -139 24
25 27 33 23 85 -3 45 -11 66 -34 95 -55 68 -112 94 -161 73z m130 -109 c34
-36 47 -57 47 -79 0 -73 -74 -67 -156 12 -46 45 -54 57 -54 89 0 76 78 65 163
-22z"/>
<path d="M454 4605 c-8 -21 2 -45 19 -45 8 0 20 7 27 15 10 12 10 18 0 30 -7
8 -19 15 -27 15 -7 0 -16 -7 -19 -15z"/>
<path d="M4478 4523 c-40 -4 -49 -21 -23 -43 8 -7 15 -18 15 -25 0 -11 -157
-65 -189 -65 -19 0 -6 -59 18 -84 19 -19 20 -19 56 3 21 12 40 19 43 16 11
-11 -82 -95 -105 -95 -19 0 -23 -5 -23 -34 0 -45 18 -50 79 -20 59 30 127 96
182 177 22 31 44 57 49 57 14 0 13 -5 -17 -63 -36 -71 -37 -137 -3 -172 36
-35 157 -52 257 -35 96 16 101 23 79 113 -9 40 -23 83 -31 97 -14 24 -14 24
-15 -23 0 -40 -5 -54 -30 -79 -30 -29 -32 -30 -115 -27 -107 5 -117 13 -86 76
12 27 36 70 53 96 l31 48 -20 27 c-16 22 -29 28 -71 30 -28 2 -56 9 -62 17 -7
8 -18 14 -24 13 -6 -1 -28 -3 -48 -5z"/>
<path d="M622 4495 c3 -24 17 -35 106 -82 76 -41 109 -53 127 -49 29 7 32 33
10 76 -20 38 -28 38 -20 1 12 -55 -21 -48 -137 31 -81 54 -90 57 -86 23z"/>
<path d="M440 4396 c0 -20 12 -31 60 -57 51 -27 59 -35 54 -54 -3 -13 -1 -26
5 -29 6 -4 11 -4 11 1 0 4 4 14 9 21 6 10 29 3 103 -34 106 -52 142 -54 154
-9 7 29 -10 78 -34 97 -14 11 -15 10 -7 -7 4 -11 10 -32 13 -47 4 -25 1 -28
-22 -28 -14 0 -62 19 -106 43 l-81 42 6 43 c7 48 -10 59 -20 12 -4 -16 -11
-30 -17 -30 -6 0 -35 14 -65 30 -29 17 -55 30 -58 30 -3 0 -5 -11 -5 -24z"/>
<path d="M2640 4358 c0 -7 31 -42 68 -79 136 -133 237 -146 183 -25 -13 30
-33 53 -60 71 -59 37 -191 60 -191 33z"/>
<path d="M521 4193 c0 -5 4 -17 8 -28 5 -13 3 -28 -7 -43 -35 -54 10 -148 96
-203 120 -76 201 4 116 115 -35 46 -35 47 -10 40 72 -18 98 25 50 81 -26 30
-26 29 -13 -24 8 -29 -33 -22 -129 23 -101 47 -112 51 -111 39z m97 -87 c66
-33 122 -97 122 -137 0 -31 0 -32 -44 -27 -102 12 -211 141 -148 177 22 13 16
15 70 -13z"/>
<path d="M3014 3959 c-3 -5 4 -21 16 -36 l21 -27 -46 -24 c-26 -13 -45 -26
-42 -29 3 -3 29 0 57 6 56 12 76 14 68 6 -9 -9 -187 -55 -243 -63 l-50 -7 25
-22 c14 -12 33 -28 42 -35 16 -12 14 -25 -36 -178 -64 -195 -77 -228 -116
-282 -35 -47 -38 -68 -11 -68 18 0 101 83 101 101 0 4 18 -2 39 -14 l39 -22
69 22 c128 40 113 48 113 -60 0 -68 4 -98 14 -106 23 -19 35 9 45 109 6 51 12
95 15 97 9 9 158 4 212 -7 77 -16 98 4 50 49 -18 17 -41 24 -100 30 -42 4 -76
4 -76 0 0 -4 -20 -9 -45 -11 -25 -2 -45 0 -45 4 0 9 38 21 69 23 26 1 96 73
127 131 19 34 19 34 -7 60 -31 30 -98 48 -152 38 -30 -5 -38 -3 -35 7 5 14 21
25 61 39 53 19 20 56 -67 75 -40 9 -20 20 62 36 37 8 67 19 70 27 9 25 -29 44
-75 39 -36 -4 -43 -2 -43 13 0 30 -11 50 -33 62 -33 17 -86 27 -93 17z m34
-221 c2 -12 -11 -19 -47 -29 -28 -7 -51 -17 -51 -21 0 -5 16 -16 35 -25 l34
-16 -40 -30 c-56 -41 -42 -45 25 -7 39 23 56 28 56 18 0 -8 -16 -20 -36 -27
-19 -7 -50 -26 -68 -42 -18 -16 -36 -26 -40 -22 -12 13 -6 73 15 128 16 44 28
59 57 75 41 21 56 21 60 -2z m190 -160 c-2 -13 -6 -22 -10 -20 -5 1 -28 2 -53
2 -32 0 -45 4 -45 14 0 17 19 23 73 25 34 1 38 -1 35 -21z m-178 -27 c0 -11
-79 -26 -88 -16 -11 10 21 25 56 25 17 0 32 -4 32 -9z m-127 -141 c11 -21 20
-25 55 -25 81 0 7 -30 -129 -51 -39 -7 -42 -5 -35 12 4 10 19 54 34 98 l26 79
18 -44 c10 -24 23 -55 31 -69z m280 80 c-7 -25 -36 -42 -57 -34 -24 9 -19 19
17 37 42 21 46 21 40 -3z m-188 -16 l30 -7 -40 -18 c-45 -20 -55 -17 -55 16 0
24 0 24 65 9z"/>
<path d="M1870 3883 c0 -3 8 -15 17 -25 17 -19 16 -20 -7 -39 l-25 -19 62 0
c74 0 93 6 93 30 0 31 -47 60 -96 60 -24 0 -44 -3 -44 -7z"/>
<path d="M2167 3856 c-108 -34 -118 -48 -55 -79 l37 -18 70 30 c38 17 78 31
88 31 45 -1 46 -3 44 -281 -1 -168 -6 -268 -13 -276 -14 -17 -52 -8 -110 28
-29 16 -48 23 -48 16 0 -14 158 -167 173 -167 13 0 33 27 54 70 14 29 17 75
19 260 2 127 7 238 13 253 24 63 1 111 -70 147 -51 26 -85 24 -202 -14z"/>
<path d="M690 3867 c0 -8 5 -19 10 -22 6 -3 10 -13 10 -21 0 -20 -36 -18 -112
6 -82 26 -125 26 -133 1 -11 -37 22 -84 95 -135 20 -15 21 -17 5 -13 -65 17
-83 17 -99 2 -9 -9 -16 -21 -16 -27 0 -22 43 -78 83 -109 32 -23 36 -29 17
-23 -14 4 -44 13 -67 20 -24 7 -43 11 -43 9 0 -2 4 -15 9 -28 8 -21 26 -28
141 -57 72 -18 133 -30 136 -28 13 13 -11 35 -55 51 -56 19 -164 96 -181 127
-18 34 10 34 135 2 94 -25 116 -28 111 -16 -3 9 -6 17 -6 19 0 1 -38 22 -85
45 -51 26 -98 57 -121 82 -51 57 -36 66 70 39 97 -24 127 -26 144 -9 20 20 14
42 -18 73 -23 22 -30 25 -30 12z"/>
<path d="M4835 3870 c-4 -6 -1 -17 5 -25 7 -8 10 -25 6 -37 -10 -39 -109 -162
-143 -178 -18 -8 -35 -21 -38 -28 -6 -15 21 -72 34 -72 5 0 34 12 65 26 31 14
61 24 67 22 18 -6 -77 -126 -103 -130 -26 -3 -27 -27 -2 -66 l15 -23 86 47
c79 44 84 45 68 20 -21 -31 -11 -33 33 -6 18 11 37 18 42 15 13 -8 30 29 30
63 0 21 -9 38 -31 56 -17 14 -35 26 -41 26 -11 0 64 95 95 121 31 26 18 60
-31 84 -23 11 -45 28 -48 38 -7 21 -61 57 -86 57 -9 0 -20 -5 -23 -10z m86
-173 c-27 -48 -34 -54 -66 -55 -19 -1 -35 2 -35 6 0 5 25 34 56 66 39 41 58
56 66 48 7 -7 1 -27 -21 -65z m9 -168 c0 -23 -4 -29 -21 -29 -11 0 -29 -5 -40
-10 -27 -15 -24 -5 12 40 35 44 49 43 49 -1z"/>
<path d="M3982 3826 c3 -26 14 -56 24 -67 15 -16 20 -40 22 -108 l4 -87 -74
-28 c-40 -16 -93 -39 -117 -52 -24 -14 -45 -23 -46 -22 -1 2 -7 22 -14 46 -6
23 -15 42 -19 42 -4 0 -18 -28 -32 -61 -13 -34 -32 -72 -42 -85 -23 -29 -17
-78 16 -127 31 -46 48 -45 73 5 11 24 35 63 53 87 l33 45 18 -36 c15 -29 92
-100 186 -170 20 -15 49 8 67 53 15 36 16 65 11 193 -4 83 -2 188 2 233 5 45
5 91 1 103 -8 21 -84 62 -142 76 l-29 7 5 -47z m53 -375 c-7 -67 -9 -71 -32
-71 -27 0 -74 22 -91 43 -9 11 -7 18 11 35 26 24 109 73 115 67 2 -2 1 -36 -3
-74z"/>
<path d="M5214 3859 c-18 -5 -54 -29 -81 -53 -38 -35 -55 -44 -73 -39 -20 5
-21 4 -11 -15 8 -14 11 -89 10 -219 0 -109 2 -205 6 -215 5 -12 -1 -18 -24
-22 -17 -3 -44 -9 -61 -12 -35 -7 -37 -14 -12 -44 l19 -23 89 23 c91 23 118
23 327 4 62 -6 67 -5 67 14 0 35 -32 63 -79 69 l-44 6 7 186 c4 102 11 205 17
229 11 51 1 75 -39 96 -40 20 -83 26 -118 15z m60 -93 c3 -12 6 -37 6 -57 0
-36 -1 -36 -52 -47 -29 -6 -62 -14 -74 -17 -20 -6 -21 -4 -16 52 6 83 11 88
75 89 48 0 56 -2 61 -20z m6 -211 l0 -55 -37 0 c-21 0 -57 -9 -80 -20 l-43
-19 0 44 c0 40 3 46 32 61 28 14 100 40 121 43 4 1 7 -24 7 -54z m-10 -169 l0
-54 -42 -7 c-24 -3 -58 -9 -76 -12 l-33 -5 3 43 3 44 65 22 c36 12 68 22 73
23 4 0 7 -24 7 -54z"/>
<path d="M1823 3732 l-123 -36 22 -23 c27 -29 61 -29 140 1 35 12 87 29 116
36 60 14 73 27 47 47 -28 19 -66 15 -202 -25z"/>
<path d="M2150 3695 c-36 -14 -75 -25 -87 -25 -13 0 -23 -6 -23 -13 0 -16 32
-47 48 -47 19 0 14 -20 -13 -52 -28 -33 -31 -68 -14 -150 18 -86 21 -87 154
-61 36 8 40 11 40 39 1 18 12 47 28 67 34 45 34 70 1 96 -37 29 -78 26 -142
-10 -30 -17 -57 -28 -60 -24 -14 14 43 64 121 106 48 25 90 48 93 52 13 12
-28 47 -55 46 -14 0 -55 -11 -91 -24z m49 -217 c-17 -34 -51 -68 -66 -68 -7 0
-13 11 -13 24 0 28 42 66 72 66 16 0 17 -3 7 -22z"/>
<path d="M1900 3655 c-30 -13 -65 -24 -77 -25 -32 0 -28 -17 8 -36 l31 -16
-21 -22 c-12 -12 -18 -25 -14 -29 3 -4 -8 -10 -25 -13 -38 -8 -40 -18 -7 -40
23 -15 24 -17 9 -45 -13 -26 -13 -34 1 -75 8 -24 15 -51 15 -59 0 -25 23 -65
37 -65 7 0 13 9 13 20 0 11 1 20 3 20 1 0 26 8 55 18 49 17 54 21 82 80 l30
63 -25 25 c-13 13 -32 24 -42 24 -26 -1 -104 -38 -130 -62 -13 -12 -23 -17
-23 -10 0 16 79 76 130 97 60 25 66 31 50 51 -14 16 -46 16 -95 -1 -11 -4 1 7
27 24 27 17 52 31 57 31 5 0 14 7 21 15 10 13 10 19 -5 35 -23 25 -37 25 -105
-5z m29 -274 c-10 -27 -51 -56 -63 -44 -3 4 -6 17 -6 29 0 18 7 25 28 30 23 5
39 9 49 13 1 1 -3 -12 -8 -28z"/>
<path d="M4262 3592 c-33 -3 -36 -22 -3 -22 16 0 71 -48 71 -62 0 -4 -21 -8
-47 -10 l-48 -3 50 -49 c28 -27 65 -63 82 -79 l33 -31 29 28 c37 35 45 65 31
117 -17 62 -56 98 -115 107 -27 4 -65 6 -83 4z"/>
<path d="M670 3415 c0 -3 10 -19 21 -34 44 -60 -12 -64 -150 -10 -41 16 -77
26 -80 24 -2 -3 1 -16 7 -30 19 -41 15 -55 -16 -55 -32 0 -52 -16 -52 -41 0
-33 55 -39 92 -9 25 19 25 19 73 -6 28 -15 45 -20 43 -13 -2 7 -24 24 -49 36
-32 17 -46 32 -50 52 l-6 29 72 -35 c56 -26 83 -34 116 -31 40 3 44 6 47 31 2
19 -5 40 -23 63 -23 30 -45 44 -45 29z m-205 -135 c-3 -5 -13 -10 -21 -10 -8
0 -12 5 -9 10 3 6 13 10 21 10 8 0 12 -4 9 -10z"/>
<path d="M4918 3405 c-3 -3 1 -25 9 -48 27 -78 63 -88 63 -17 0 53 -9 74 -25
60 -9 -8 -15 -8 -20 0 -7 11 -19 13 -27 5z"/>
<path d="M4809 3342 c5 -9 14 -36 21 -60 13 -50 30 -51 46 -3 18 56 8 78 -37
79 -34 2 -38 0 -30 -16z"/>
<path d="M4736 3333 c-5 -12 -9 -14 -18 -5 -22 22 -28 12 -22 -30 8 -60 24
-98 40 -98 16 0 17 5 18 87 1 62 -6 79 -18 46z"/>
<path d="M535 3185 c-40 -21 -55 -43 -55 -80 0 -48 38 -96 100 -128 72 -37
131 -33 174 14 32 36 32 75 0 124 -41 62 -161 101 -219 70z m170 -66 c16 -8
36 -26 44 -41 14 -24 14 -28 -3 -47 -34 -37 -183 -24 -227 20 -24 24 -25 64
-1 79 23 14 150 7 187 -11z"/>
<path d="M90 2949 c0 -40 52 -93 105 -108 22 -6 106 -11 186 -11 l147 0 6 -25
c4 -14 11 -25 17 -25 7 0 9 11 7 25 l-5 25 166 0 c238 -1 276 -11 268 -72 -3
-25 8 -38 34 -38 12 0 11 34 -2 62 -29 65 -116 87 -341 88 l-136 0 -7 40 c-9
54 -29 53 -22 -1 l5 -42 -90 7 c-50 3 -131 6 -180 6 -74 0 -91 3 -108 20 -16
16 -18 25 -10 45 13 35 13 35 -15 35 -21 0 -25 -5 -25 -31z"/>
<path d="M760 2794 c0 -3 10 -14 23 -24 34 -28 12 -40 -95 -49 -104 -9 -118
-13 -118 -41 0 -48 40 -80 131 -104 l54 -15 -65 0 c-80 -1 -98 -10 -71 -35 17
-16 29 -16 122 -7 164 17 174 20 157 37 -8 8 -49 18 -94 24 -43 4 -101 17
-128 27 -47 17 -77 45 -64 58 3 3 50 12 104 20 80 11 102 18 117 36 20 25 12
41 -34 65 -30 15 -39 17 -39 8z"/>
<path d="M1418 2747 c-127 -36 -184 -136 -176 -310 5 -109 25 -156 90 -211 48
-42 99 -58 180 -58 137 0 228 69 228 174 0 53 -20 84 -60 93 -46 10 -80 -16
-80 -61 0 -69 -71 -105 -139 -69 -40 20 -55 65 -54 160 0 119 30 165 105 165
49 0 78 -24 78 -66 0 -49 32 -78 77 -71 59 10 63 19 63 131 0 66 -4 106 -12
114 -20 20 -76 15 -88 -8 -11 -20 -11 -20 -49 0 -53 26 -107 32 -163 17z"/>
<path d="M1858 2740 c-33 -8 -52 -51 -37 -84 13 -27 16 -29 64 -30 l30 -1 0
-165 0 -165 -30 3 c-42 4 -68 -18 -68 -58 0 -53 19 -60 174 -60 154 0 162 4
157 67 -3 33 -7 39 -35 48 -44 12 -45 50 -2 91 l31 29 21 -27 c12 -15 31 -43
41 -63 19 -34 19 -38 3 -65 -21 -35 -21 -44 -1 -64 12 -13 40 -16 139 -16 139
0 155 7 155 65 0 39 -27 60 -65 51 -19 -5 -29 1 -48 26 -39 52 -107 167 -107
181 0 14 90 96 128 116 12 6 27 9 32 6 36 -22 78 43 56 86 -11 23 -16 24 -140
27 -86 2 -133 -1 -142 -9 -18 -15 -18 -53 1 -69 20 -16 12 -27 -68 -100 l-68
-63 3 64 c3 62 4 64 33 69 27 5 30 9 33 46 2 27 -2 45 -12 53 -15 13 -234 21
-278 11z"/>
<path d="M2607 2741 c-44 -13 -63 -75 -30 -102 9 -8 32 -14 52 -14 l36 0 3
-162 c3 -173 4 -167 -46 -163 -53 4 -83 -68 -44 -103 16 -14 43 -17 174 -17
137 0 157 2 171 18 38 42 5 110 -48 100 -39 -8 -45 15 -45 159 0 159 4 177 37
168 36 -9 73 18 73 53 0 58 -11 63 -173 65 -81 1 -153 0 -160 -2z"/>
<path d="M3047 2737 c-27 -10 -37 -25 -37 -59 0 -34 39 -63 71 -53 14 5 25 2
30 -6 12 -19 11 -286 -1 -308 -6 -13 -17 -17 -35 -13 -54 10 -88 -64 -46 -102
16 -14 40 -16 187 -14 l168 3 16 28 c13 24 13 30 -1 55 -13 24 -21 27 -65 27
-48 0 -49 1 -52 33 -3 32 2 36 39 33 44 -4 146 21 181 44 104 69 102 232 -3
302 -39 25 -52 28 -143 31 -56 1 -143 3 -194 5 -51 1 -103 -2 -115 -6z m346
-134 c23 -22 22 -78 -3 -103 -14 -14 -33 -20 -65 -20 l-45 0 0 69 c0 46 4 71
13 75 20 8 81 -4 100 -21z"/>
<path d="M3953 2742 c-25 -4 -53 -37 -53 -62 0 -33 27 -55 67 -55 l38 0 0
-165 0 -165 -39 0 c-33 0 -43 -5 -55 -27 -14 -25 -14 -31 -1 -55 l16 -28 259
-2 c143 -2 266 1 272 5 9 5 14 43 17 108 4 127 -8 154 -70 154 -47 0 -78 -38
-71 -90 7 -56 -9 -70 -82 -70 -31 0 -62 5 -69 12 -14 14 -17 295 -3 316 6 9
19 11 44 7 61 -12 99 47 60 94 -17 19 -30 21 -163 23 -80 2 -155 2 -167 0z"/>
<path d="M4817 2730 c-26 -21 -41 -55 -126 -290 l-48 -135 -43 -6 c-46 -6 -60
-20 -60 -60 0 -51 23 -59 173 -59 127 0 137 1 147 20 6 12 10 35 8 53 -3 28
-7 32 -35 35 -23 2 -33 8 -33 21 0 31 22 41 95 41 73 0 95 -10 95 -41 0 -13
-10 -19 -32 -21 -31 -3 -33 -6 -36 -44 -5 -61 5 -65 164 -62 l138 3 16 28 c13
24 13 30 0 55 -11 19 -26 28 -50 32 -40 6 -34 -8 -120 268 -58 185 -55 182
-164 182 -48 0 -69 -5 -89 -20z m119 -255 c-6 -17 -61 -21 -71 -4 -4 6 3 47
16 91 l24 81 18 -77 c11 -41 17 -83 13 -91z"/>
<path d="M5330 2738 c-20 -7 -40 -38 -40 -60 0 -31 28 -53 67 -53 l38 0 0
-165 0 -165 -39 0 c-33 0 -43 -5 -55 -27 -14 -25 -14 -31 -1 -55 l16 -28 215
-3 215 -2 54 27 c62 32 90 75 90 138 0 52 -29 99 -77 123 l-37 19 32 17 c61
32 79 107 39 167 -41 62 -70 69 -297 72 -110 1 -210 -1 -220 -5z m362 -126
c17 -17 4 -56 -22 -69 -14 -7 -44 -13 -68 -13 l-43 0 3 47 c3 41 6 48 28 53
28 7 88 -4 102 -18z m2 -213 c56 -44 22 -109 -57 -109 -64 0 -77 13 -77 75 l0
55 54 0 c39 0 60 -6 80 -21z"/>
<path d="M730 2454 c0 -3 4 -13 9 -23 9 -15 -1 -18 -93 -29 -233 -28 -381
-119 -305 -188 29 -26 175 -32 251 -10 77 22 144 69 164 117 17 36 21 39 58
39 54 0 106 -15 147 -43 38 -25 79 -97 79 -139 0 -23 4 -28 25 -28 23 0 25 3
19 28 -11 49 -73 132 -122 163 -48 30 -129 59 -167 59 -14 0 -24 10 -32 30 -9
25 -33 43 -33 24z m10 -114 c-38 -71 -282 -146 -378 -116 -49 16 2 57 108 87
86 25 200 47 248 48 30 1 32 -1 22 -19z"/>
<path d="M5935 2116 c-81 -35 -132 -148 -120 -262 4 -35 11 -64 16 -64 5 0 9
35 9 78 0 63 5 88 23 122 26 49 75 80 127 80 90 0 220 -103 278 -220 72 -144
65 -330 -13 -330 -55 0 -92 82 -81 181 5 50 3 57 -14 62 -24 6 -30 -10 -30
-81 0 -115 78 -214 145 -184 59 27 82 161 50 285 -61 234 -249 395 -390 333z"/>
<path d="M1110 1992 c0 -6 10 -12 22 -14 13 -2 24 -11 26 -20 4 -20 17 -14
-322 -150 -138 -54 -257 -103 -265 -107 -11 -7 -8 -12 14 -23 27 -14 35 -12
208 63 l180 77 16 -31 c45 -90 249 -91 307 -1 33 50 -25 104 -111 104 l-37 0
31 26 c30 25 40 57 23 68 -20 12 -92 18 -92 8z m134 -135 c51 -37 -37 -100
-142 -101 -56 -1 -66 2 -83 23 -11 13 -19 31 -17 40 7 38 200 68 242 38z"/>
<path d="M5716 1825 c-3 -8 10 -41 29 -72 56 -94 80 -223 41 -223 -6 0 -38 32
-69 70 -87 107 -137 120 -137 36 0 -25 5 -48 10 -51 6 -4 10 6 10 23 0 61 30
48 94 -43 50 -69 75 -89 101 -79 37 14 44 66 21 153 -7 29 -10 49 -6 44 4 -4
76 -100 160 -213 84 -113 154 -207 156 -209 7 -8 15 7 17 32 2 20 -45 85 -203
286 -113 143 -208 260 -211 261 -4 0 -9 -7 -13 -15z"/>
<path d="M1286 1752 c-3 -5 8 -12 25 -16 50 -10 32 -35 -61 -85 -71 -38 -86
-51 -88 -73 -5 -44 32 -61 123 -56 l75 3 -57 -28 c-71 -36 -71 -36 -53 -47 27
-17 47 -11 157 52 130 74 119 66 105 80 -9 9 -29 7 -84 -11 -89 -29 -191 -39
-213 -21 -20 17 -8 31 61 71 74 42 114 77 114 99 0 10 -3 21 -7 23 -19 11 -91
18 -97 9z"/>
<path d="M5497 1583 c-11 -10 -8 -93 3 -93 6 0 10 14 10 30 0 60 37 26 112
-102 47 -81 47 -81 58 -53 12 31 11 34 -77 153 -39 53 -59 72 -76 72 -13 0
-27 -3 -30 -7z"/>
<path d="M1490 1520 c0 -5 11 -10 24 -10 28 0 39 -11 31 -32 -3 -7 -49 -42
-103 -77 l-97 -65 31 -9 c17 -5 38 -22 48 -38 20 -34 81 -54 140 -45 83 14
166 78 166 130 0 8 -12 24 -27 36 -24 19 -37 21 -95 17 l-67 -4 24 19 c30 23
40 55 25 73 -14 17 -100 21 -100 5z m174 -116 c27 -10 19 -50 -16 -76 -75 -56
-163 -73 -198 -38 -24 24 -25 34 -4 55 48 47 165 79 218 59z"/>
<path d="M5432 1507 c-8 -10 -5 -33 13 -90 16 -49 25 -101 25 -142 0 -101 -24
-98 -85 10 -43 77 -79 109 -106 94 -14 -7 -19 -21 -19 -55 0 -28 4 -43 10 -39
6 3 10 17 10 31 0 49 33 22 77 -61 23 -44 50 -86 61 -93 48 -32 87 39 76 134
l-5 49 25 -40 c14 -22 29 -47 34 -55 7 -12 11 -11 21 8 11 20 5 35 -55 140
-37 64 -68 118 -69 120 -1 1 -7 -3 -13 -11z"/>
<path d="M5125 1266 c-31 -31 -59 -126 -36 -126 5 0 14 20 20 45 16 63 69 86
105 46 15 -17 15 -21 -9 -72 -13 -30 -25 -71 -25 -91 0 -46 28 -79 60 -71 75
20 82 201 11 272 -30 30 -94 29 -126 -3z m145 -177 c0 -58 -23 -85 -47 -54
-17 23 -12 99 8 137 l12 23 13 -30 c7 -16 13 -51 14 -76z"/>
<path d="M5746 1234 c-9 -22 17 -49 39 -40 10 3 15 15 13 28 -4 29 -42 37 -52
12z"/>
<path d="M1873 1210 c-37 -15 -27 -23 20 -16 35 5 48 3 70 -14 26 -21 35 -54
19 -76 -4 -6 -42 -10 -89 -10 -73 1 -84 -2 -107 -23 -32 -30 -33 -55 -4 -75
62 -44 202 5 243 84 22 42 19 66 -13 101 -21 24 -38 32 -72 35 -25 2 -55 -1
-67 -6z m65 -158 c-17 -20 -87 -51 -115 -52 -62 0 -22 56 47 68 60 11 85 5 68
-16z"/>
<path d="M2245 1192 c-26 -12 -89 -70 -170 -156 -72 -76 -131 -142 -133 -147
-2 -5 9 -9 24 -9 15 0 38 -9 50 -21 12 -11 40 -23 61 -26 79 -10 205 72 219
144 12 63 -59 93 -142 58 -34 -14 -34 -13 28 57 70 79 112 103 153 88 14 -5
30 -20 36 -34 8 -16 17 -22 31 -18 46 12 -12 70 -78 78 -26 3 -53 -2 -79 -14z
m-7 -174 c18 -18 15 -38 -13 -74 -50 -66 -152 -106 -190 -74 -25 21 -17 47 26
84 75 64 150 91 177 64z"/>
<path d="M4964 1156 c-58 -58 -41 -135 33 -152 88 -20 88 -20 91 -47 4 -35
-38 -58 -70 -38 -24 15 -32 9 -24 -17 16 -48 80 -30 109 30 16 32 17 41 5 65
-13 27 -40 40 -120 57 -31 7 -44 36 -28 66 13 24 57 37 80 22 20 -12 30 -6 30
19 0 15 -26 29 -58 29 -8 0 -29 -15 -48 -34z"/>
<path d="M4790 1063 c-23 -8 -61 -46 -70 -68 -17 -46 -21 -65 -12 -65 5 0 16
18 25 40 24 61 77 73 115 27 10 -12 5 -25 -22 -66 -44 -65 -54 -112 -32 -146
21 -32 37 -31 75 1 104 87 37 319 -79 277z m90 -173 c0 -64 -15 -103 -38 -98
-24 5 -23 94 1 132 24 36 37 24 37 -34z"/>
<path d="M2338 973 c-41 -16 -53 -39 -15 -28 12 4 26 8 31 9 34 4 -3 -59 -161
-280 -99 -137 -182 -255 -187 -261 -5 -9 1 -13 23 -13 28 0 39 13 141 163
l112 164 36 -19 c92 -47 252 54 252 160 0 63 -64 80 -139 37 -36 -21 -42 -22
-36 -8 15 36 17 64 5 78 -15 18 -15 18 -62 -2z m176 -79 c21 -21 21 -23 -13
-77 -52 -81 -148 -124 -188 -84 -15 14 -15 18 0 41 30 45 89 98 131 117 50 23
51 23 70 3z"/>
<path d="M4433 909 c-61 -24 -142 -97 -172 -156 -44 -87 -53 -148 -58 -378
l-5 -219 23 16 c24 15 24 18 31 244 7 244 14 286 62 369 33 56 93 92 169 101
47 6 57 10 57 25 0 25 -39 24 -107 -2z"/>
<path d="M2623 853 c-32 -16 -44 -33 -23 -33 6 0 24 7 41 16 36 18 64 11 85
-21 26 -40 11 -60 -55 -73 -87 -18 -144 -70 -121 -111 49 -93 259 59 235 170
-14 62 -92 87 -162 52z m88 -141 c-15 -28 -89 -92 -106 -92 -25 0 -29 29 -9
52 19 21 89 57 112 58 9 0 10 -5 3 -18z"/>
<path d="M2831 798 c-35 -22 -28 -38 8 -19 11 6 22 11 25 11 23 0 -12 -86
-129 -320 -74 -148 -135 -272 -135 -276 0 -3 12 -4 26 -2 23 3 38 28 148 263
141 300 146 312 135 343 -10 28 -34 28 -78 0z"/>
<path d="M3011 720 c-70 -70 -115 -154 -105 -194 7 -29 12 -31 36 -12 13 9 16
22 12 48 -7 43 11 82 66 139 25 26 44 39 50 33 5 -5 5 -54 -1 -123 -6 -62 -8
-115 -7 -117 2 -2 14 -1 26 3 19 5 22 12 22 63 0 52 4 63 36 102 38 45 54 59
64 53 3 -2 2 -56 -1 -122 -4 -65 -6 -119 -5 -120 1 -1 11 0 23 3 19 5 21 15
28 124 4 65 4 127 0 139 -10 33 -39 25 -89 -26 l-46 -46 0 41 c0 91 -26 94
-109 12z"/>
<path d="M3960 760 c-9 -17 -3 -24 45 -54 30 -20 78 -58 106 -85 l51 -49 -38
-69 c-104 -184 -212 -388 -210 -391 2 -2 14 0 28 3 19 5 45 49 141 241 l118
235 -20 28 c-27 38 -93 97 -149 132 -54 34 -58 35 -72 9z"/>
<path d="M3848 758 c-9 -7 -22 -33 -28 -58 -15 -57 -65 -152 -95 -180 -39 -37
-46 -19 -39 95 5 78 4 108 -6 120 -20 24 -46 18 -74 -17 -28 -36 -26 -51 2
-25 45 41 55 13 37 -99 -16 -100 -10 -124 33 -124 31 0 74 39 111 100 l22 35
-6 -40 c-4 -22 -9 -52 -11 -67 -6 -31 2 -34 29 -13 14 10 22 40 33 126 8 61
14 123 12 136 -3 21 -5 22 -20 11z"/>
<path d="M3415 731 c-127 -77 -136 -261 -13 -261 133 0 226 193 129 267 -24
18 -82 15 -116 -6z m93 -13 c28 -28 3 -147 -41 -200 -28 -33 -58 -42 -83 -24
-37 28 -12 155 44 219 17 20 62 23 80 5z"/>
</g>
</svg>
